<?xml version="1.0" encoding="UTF-8" standalone="no"?>
<!-- Created with Inkscape (http://www.inkscape.org/) -->

<svg
   xmlns:dc="http://purl.org/dc/elements/1.1/"
   xmlns:cc="http://creativecommons.org/ns#"
   xmlns:rdf="http://www.w3.org/1999/02/22-rdf-syntax-ns#"
   xmlns:svg="http://www.w3.org/2000/svg"
   xmlns="http://www.w3.org/2000/svg"
   xmlns:sodipodi="http://sodipodi.sourceforge.net/DTD/sodipodi-0.dtd"
   xmlns:inkscape="http://www.inkscape.org/namespaces/inkscape"
   width="15537.049"
   height="6335.6558"
   viewBox="0 0 15537.049 6335.6558"
   version="1.1"
   id="svg8"
   inkscape:version="0.92.2 (5c3e80d, 2017-08-06)"
   sodipodi:docname="header-logo.svg"
   inkscape:export-filename="/home/felicianotech/Projects/siren-cafe/drawing6.png"
   inkscape:export-xdpi="22.32"
   inkscape:export-ydpi="22.32">
  <defs
     id="defs2" />
  <sodipodi:namedview
     id="base"
     pagecolor="#ffffff"
     bordercolor="#666666"
     borderopacity="1.0"
     inkscape:pageopacity="1"
     inkscape:pageshadow="2"
     inkscape:zoom="0.061871845"
     inkscape:cx="-6457.784"
     inkscape:cy="189.83406"
     inkscape:document-units="px"
     inkscape:current-layer="layer1"
     showgrid="false"
     inkscape:window-width="3090"
     inkscape:window-height="1689"
     inkscape:window-x="110"
     inkscape:window-y="55"
     inkscape:window-maximized="1"
     fit-margin-top="0"
     fit-margin-left="0"
     fit-margin-right="0"
     fit-margin-bottom="0"
     units="px" />
  <metadata
     id="metadata5">
    <rdf:RDF>
      <cc:Work
         rdf:about="">
        <dc:format>image/svg+xml</dc:format>
        <dc:type
           rdf:resource="http://purl.org/dc/dcmitype/StillImage" />
        <dc:title />
      </cc:Work>
    </rdf:RDF>
  </metadata>
  <g
     inkscape:label="Layer 1"
     inkscape:groupmode="layer"
     id="layer1"
     transform="translate(-1825.4384,-35.474525)">
    <g
       id="g846">
      <g
         id="flowRoot817-7-3-6-9-2"
         style="font-style:normal;font-variant:normal;font-weight:normal;font-stretch:normal;font-size:561.86956787px;line-height:1.25;font-family:'Marck Script';-inkscape-font-specification:'Marck Script';text-align:center;letter-spacing:0px;word-spacing:0px;text-anchor:middle;fill:#000000;fill-opacity:1;stroke:none"
         transform="matrix(6.2915878,0,0,6.2915878,9663.5871,5353.7462)"
         aria-label="Siren Café">
        <path
           style="fill:#000000;fill-opacity:1"
           id="path823"
           d="m -939.03329,-91.697713 39.89273,-0.56187 v 23.036652 q -6.74243,-1.123739 -15.73234,-1.123739 -8.98992,0 -20.22731,1.123739 0,43.263957 -41.57835,87.651653 -41.57834,44.387696 -100.57464,71.919305 -58.4344,28.093473 -109.0027,28.093473 -26.4079,0 -43.264,-13.48486 -16.2942,-13.484874 -16.2942,-35.397787 0,-32.588435 43.264,-67.9862182 43.2639,-35.3977828 101.1365,-58.4344348 57.8726,-23.036653 104.50774,-26.96974 -5.61874,-8.428043 -17.41794,-14.608608 -11.7993,-6.180562 -48.3208,-19.103562 -36.5215,-13.48487 -51.692,-29.21722 -15.1705,-16.29422 -15.1705,-45.51144 0,-29.21721 31.4647,-66.86247 31.4647,-37.64527 74.1668,-62.9294 43.26396,-25.846 75.85239,-25.846 14.60861,0 24.16039,10.67553 9.55179,10.11365 9.55179,25.28413 0,24.72226 -29.77909,62.36752 -29.77909,37.08339 -66.30058,56.74882 l -13.4849,-19.10356 q 21.9129,-11.23739 38.20713,-34.83591 16.85609,-24.1604 16.85609,-41.57835 0,-17.41796 -18.5417,-17.41796 -26.40782,0 -60.68192,33.15031 -33.7122,32.58843 -33.7122,61.24378 0,19.66543 10.1137,30.90282 10.1136,11.2374 51.1301,28.09348 41.0165,16.29422 58.43445,29.21722 17.41796,12.36113 23.03666,31.464697 z M -1189.6271,54.950244 q 0,26.969739 43.8258,26.969739 24.1604,0 62.3675,-17.979826 38.769,-17.417957 67.9862,-49.444522 29.77913,-31.464696 29.77913,-64.615 0,-3.933087 -1.68561,-11.799261 -76.97612,7.304304 -139.90552,43.263956 -62.3675,35.959653 -62.3675,73.604914 z"
           inkscape:connector-curvature="0" />
        <path
           style="fill:#000000;fill-opacity:1"
           id="path825"
           d="m -762.07073,-228.23202 q -31.4647,0 -31.4647,-25.28413 0,-14.04674 7.86618,-23.59852 7.86617,-9.55178 20.2273,-9.55178 12.36113,0 20.22731,7.3043 7.86617,7.30431 7.86617,19.10357 0,11.79926 -6.74243,21.91291 -6.74244,10.11365 -17.97983,10.11365 z m -7.3043,165.751524 11.23739,9.551783 q -13.48487,25.846 -35.95966,44.3876956 -21.91291,17.9798262 -39.89274,17.9798262 -31.46469,0 -31.46469,-43.8258268 0,-54.501348 44.94956,-142.153002 10.11366,-19.10356 11.79927,-22.47478 l 24.16039,14.60861 q -11.79926,21.35104 -29.21722,67.98622 -16.85609,46.63517 -16.85609,60.120039 0,12.923 5.6187,18.541696 5.61869,5.618696 13.48487,5.618696 15.17048,0 42.14022,-30.340957 z"
           inkscape:connector-curvature="0" />
        <path
           style="fill:#000000;fill-opacity:1"
           id="path827"
           d="m -569.02465,-188.90115 q 14.04674,0 23.03665,9.55178 8.98992,9.55179 8.98992,24.72226 0,30.34096 -34.83592,64.053136 l -13.48487,-10.675526 q 7.86618,-17.41795 7.86618,-25.28413 0,-15.17048 -16.85609,-15.17048 -16.85609,0 -32.02657,21.35105 -15.17047,21.351042 -35.95965,66.300608 -20.2273,44.3876954 -30.90282,62.9293912 L -725.22439,-5.1698 q 30.90283,-70.233696 35.39778,-82.594826 15.17048,-43.825824 15.17048,-111.250174 l 31.4647,-8.42804 q -1.68561,36.52152 -5.05683,56.74882 -3.37122,19.66544 -16.29422,64.615002 56.74883,-102.822132 95.51783,-102.822132 z"
           inkscape:connector-curvature="0" />
        <path
           style="fill:#000000;fill-opacity:1"
           id="path829"
           d="m -369.2976,-56.299931 12.923,10.113653 q -17.41796,24.160391 -47.75891,40.4546084 -30.34096,15.7323476 -58.99631,15.7323476 -28.65534,0 -46.0733,-16.8560867 -17.41796,-16.8560873 -17.41796,-44.3876963 0,-51.691995 54.50135,-101.698395 55.06322,-50.00639 111.25018,-50.00639 37.08339,0 37.08339,29.21722 0,30.34096 -39.33087,61.24378 -38.769,30.902829 -109.56457,56.186959 5.05683,12.923 15.73235,20.227305 10.67552,7.304304 21.91291,7.304304 24.16039,0 65.73874,-27.531609 z m -106.19335,-16.856087 q 45.51144,-15.732348 78.09987,-39.330872 32.58844,-23.59852 32.58844,-43.26395 0,-7.30431 -5.6187,-12.923 -5.61869,-5.6187 -12.923,-5.6187 -26.40787,0 -57.31069,33.1503 -30.34096,32.58844 -34.83592,67.986222 z"
           inkscape:connector-curvature="0" />
        <path
           style="fill:#000000;fill-opacity:1"
           id="path831"
           d="m -77.204442,-57.985539 11.799261,8.989913 q -12.361131,24.722261 -34.274044,41.5783477 -21.351045,16.8560871 -38.769005,16.8560871 -17.41795,0 -27.5316,-10.11365227 -10.11366,-10.11365253 -10.11366,-25.28413053 0,-15.170478 19.10357,-52.815739 19.66543,-38.207127 19.66543,-56.186957 0,-7.86617 -6.74243,-14.04674 -6.18057,-6.74243 -15.17048,-6.74243 -28.65535,0 -57.87256,43.82582 -29.21722,43.263959 -65.17687,125.296916 L -315.99901,1.5726348 q 10.67552,-65.1768698 30.34096,-126.9825248 20.2273,-62.36752 37.08339,-89.33726 l 23.03665,7.30431 q -15.73235,39.89273 -39.89274,137.65804 77.538,-132.60122 142.71487,-132.60122 14.04674,0 23.036655,9.55178 9.551783,9.55179 9.551783,22.47479 0,12.923 -3.371218,23.59852 -3.371217,10.11365 -21.35104,48.320782 -17.41796,37.645261 -17.41796,47.197043 0,9.551783 5.6187,15.170479 5.61869,5.056826 10.67552,5.056826 5.05682,0 8.42804,-1.685609 3.37122,-1.685609 7.30431,-5.056826 4.494952,-3.371217 7.866169,-6.180565 3.371218,-2.809348 7.866174,-7.304305 5.056826,-5.056826 7.304305,-6.742434 z"
           inkscape:connector-curvature="0" />
        <path
           style="fill:#000000;fill-opacity:1"
           id="path833"
           d="m 493.83063,-345.10089 q 20.78917,0 32.02657,11.79926 11.79926,11.23739 11.79926,30.90283 0,43.82582 -52.25387,81.47109 -52.25387,37.08339 -119.11635,37.08339 -29.21722,0 -61.80565,-8.42805 -21.35105,34.83592 -21.35105,75.8524 0,40.454604 22.47479,65.738735 22.47478,24.722261 65.73874,24.722261 77.538,0 101.69839,-90.460996 h 26.40787 q -6.18057,52.253865 -49.44453,92.146605 -42.70208,39.892739 -112.93578,39.892739 -37.08339,0 -69.10996,-26.969739 -32.02656,-27.531609 -32.02656,-79.223609 0,-51.691996 39.33087,-112.935786 -28.65535,-16.85608 -45.51144,-41.57835 l 15.17048,-16.85608 q 3.93309,3.93308 10.67552,11.79926 12.923,15.17048 34.83592,26.40787 33.1503,-46.07331 96.07969,-83.71857 63.49126,-37.64526 107.31709,-37.64526 z m -129.23,138.78178 q 48.88265,0 85.96604,-23.03665 37.0834,-23.03665 37.0834,-53.93948 0,-10.67552 -7.86618,-16.85608 -7.3043,-6.74244 -19.10356,-6.74244 -34.27405,0 -76.41426,27.53161 -42.14022,26.96974 -66.86248,65.17687 20.2273,7.86617 47.19704,7.86617 z"
           inkscape:connector-curvature="0" />
        <path
           style="fill:#000000;fill-opacity:1"
           id="path835"
           d="m 800.84846,-46.748148 12.923,9.551783 q -7.86618,16.856087 -29.21722,32.026565 -20.78917,15.170478 -38.20713,15.170478 -33.15031,0 -33.15031,-34.835913 0,-16.294217 8.42805,-38.769 l -20.78918,21.351044 Q 670.49472,-11.350365 648.01993,-0.67484347 626.10702,10.000678 604.75598,10.000678 q -21.35105,0 -32.58844,-11.7992606 -10.67552,-12.3611304 -10.67552,-33.7121744 0,-39.330869 30.34096,-77.538003 30.34095,-38.769 77.538,-62.92939 47.19704,-24.16039 94.39409,-24.72226 l 1.12374,18.5417 -23.59853,5.05682 q -51.13013,11.23739 -90.461,44.94957 -38.769,33.712172 -38.769,67.424346 0,33.150304 26.96974,33.150304 25.28413,0 62.36752,-35.397782 37.0834,-35.397788 61.80566,-83.156698 l 23.59852,14.04674 q -34.83592,70.233697 -34.83592,89.337262 0,7.866174 5.05683,13.48487 5.6187,5.056826 10.67552,5.056826 5.6187,0 7.30431,-0.56187 1.68561,-0.561869 3.37121,-1.123739 1.68561,-1.123739 3.93309,-2.809348 2.80935,-1.685609 4.49496,-3.371217 2.24748,-1.685609 6.74243,-5.056826 4.49496,-3.371218 7.30431,-5.618696 z"
           inkscape:connector-curvature="0" />
        <path
           style="fill:#000000;fill-opacity:1"
           id="path837"
           d="m 943.42297,-210.81406 -17.97983,67.98622 73.04304,-8.42805 -16.29421,26.40787 -62.9294,8.42805 q -7.3043,30.340952 -24.72226,91.584735 -37.64526,132.601215 -37.64526,167.999005 l -35.95965,18.54169 q 0,-48.32078 41.57835,-186.540695 21.35104,-69.109957 26.40787,-88.775395 -19.66544,5.05683 -35.95966,5.05683 -32.02656,0 -32.02656,-25.28413 0,-14.04674 21.35104,-33.71218 30.90283,-28.65534 73.60492,-50.56826 33.1503,-112.93578 47.75891,-141.59113 19.66543,-38.769 35.95965,-49.44452 24.16038,-15.17048 50.00638,-15.17048 25.846,0 36.5215,14.60861 10.6756,14.60861 9.5518,34.27404 -2.8093,70.79557 -152.26663,164.62779 z m 89.89913,-165.75152 q -31.4647,0 -46.63518,30.34095 -11.79926,23.59852 -20.78917,56.74883 -8.98992,33.1503 -12.923,45.51143 30.90282,-19.10356 66.30065,-51.692 35.3977,-32.58843 36.5215,-56.74882 1.1237,-24.16039 -22.4748,-24.16039 z m -136.53431,236.54708 12.36113,-49.44452 q -21.35104,8.98991 -33.71217,18.5417 -11.79926,9.55178 -11.79926,16.29421 0,14.60861 33.1503,14.60861 z"
           inkscape:connector-curvature="0" />
        <path
           style="fill:#000000;fill-opacity:1"
           id="path839"
           d="m 1178.1702,-56.299931 12.923,10.113653 q -17.4179,24.160391 -47.7589,40.4546084 -30.341,15.7323476 -58.9963,15.7323476 -28.6553,0 -46.0733,-16.8560867 -17.418,-16.8560873 -17.418,-44.3876963 0,-51.691995 54.5014,-101.698395 55.0632,-50.00639 111.2502,-50.00639 37.0834,0 37.0834,29.21722 0,30.34096 -39.3309,61.24378 -38.769,30.902829 -109.5646,56.186959 5.0568,12.923 15.7324,20.227305 10.6755,7.304304 21.9129,7.304304 24.1604,0 65.7387,-27.531609 z m -106.1933,-16.856087 q 45.5114,-15.732348 78.0998,-39.330872 32.5885,-23.59852 32.5885,-43.26395 0,-7.30431 -5.6187,-12.923 -5.6187,-5.6187 -12.923,-5.6187 -26.4079,0 -57.3107,33.1503 -30.341,32.58844 -34.8359,67.986222 z m 143.2767,-175.865172 -96.0797,31.46469 -16.2942,-10.11365 74.1668,-43.82583 z"
           inkscape:connector-curvature="0" />
      </g>
      <path
         inkscape:connector-curvature="0"
         id="path880-1-8-3-6-4"
         d="m 7617.1259,3532.3297 c -250.552,-36.8451 -452.8032,-103.1844 -679.2942,-222.812 -159.3894,-84.1868 -201.1561,-112.7678 -339.4535,-232.2937 -119.5925,-103.3591 -337.2883,-341.2128 -337.2883,-368.5204 0,-3.9095 -28.0928,-49.0023 -62.4284,-100.2055 -183.328,-273.3897 -297.7441,-636.4617 -299.361,-949.9468 -1.312,-254.4986 51.3285,-418.3315 179.3347,-558.142 131.8799,-144.0421 293.1976,-200.13395 540.3927,-187.90092 188.0648,9.30629 354.9059,54.01185 660.4074,176.95692 257.5922,103.6655 335.0222,129.689 530.4264,178.2704 165.9966,41.27 439.1501,44.2962 571.3249,6.3302 102.1044,-29.3289 248.6423,-98.6716 342.2406,-161.9497 117.461,-79.4105 294.2834,-272.20577 407.9294,-444.77943 240.2243,-364.78273 390.3976,-499.50995 662.4452,-594.307864 97.2172,-33.876849 127.4143,-37.818534 287.5912,-37.541536 156.525,0.271989 192.782,4.903665 289.105,36.948172 307.159,102.183108 528.314,326.654278 626.803,636.201918 43.141,135.59329 43.062,371.68404 -0.172,509.37454 -59.839,190.5714 -133.536,314.2774 -414.18,695.2262 -154.703,209.9935 -221.992,348.661 -230.039,474.054 -10.528,164.0504 57.631,271.2796 196.556,309.2284 226.115,61.765 494.997,-73.6415 705.182,-355.1235 42.974,-57.5506 82.151,-107.7353 87.06,-111.5209 4.91,-3.7864 87.677,-127.088 183.926,-274.0038 346.941,-529.5725 479.174,-669.5448 714.988,-756.8373 329.25,-121.8794 733.506,30.9344 924.254,349.381 123.861,206.7819 158.154,521.234 87.46,801.9845 l -15.273,60.6541 -40.768,-62.6718 c -81.553,-125.3723 -230.161,-185.3292 -414.361,-167.1783 -202.868,19.9904 -440.903,107.663 -993.45,365.9079 -413.758,193.3779 -539.765,247.1543 -728.79,311.0286 -327.565,110.6899 -560.972,114.5657 -723.425,12.0132 -102.35,-64.6108 -183.403,-198.7604 -228.818,-378.7078 -20.913,-82.8662 -25.953,-152.1759 -25.529,-351.0552 0.466,-219.6598 3.926,-256.9573 30.44,-328.4021 58.737,-158.2757 130.173,-215.3889 269.406,-215.3889 142.378,0 202.116,-48.8269 202.116,-165.2021 0,-23.202 8.81,-63.2702 19.578,-89.0411 22.281,-53.3261 20.294,-123.751 -4.815,-170.6676 -21.701,-40.5477 -8.799,-93.8982 25.326,-104.729 61.032,-19.3706 61.059,-43.3507 0.136,-120.00195 -80.736,-101.5783 -106.47,-166.82254 -117.375,-297.58016 -5.178,-62.05483 -13.756,-112.82716 -19.066,-112.82716 -5.309,0 -20.438,11.91667 -33.619,26.48164 -37.314,41.23126 -153.76,90.18127 -296.94,124.82254 -196.9156,47.64232 -278.9071,96.58374 -350.1537,209.00577 -22.6874,35.79938 -24.6128,36.2453 -71.6274,16.60202 -100.8361,-42.13241 -140.1233,19.29399 -88.1006,137.7456 150.6035,342.9113 172.4957,439.7963 161.9705,716.7891 -9.3657,246.4514 -49.751,406.3003 -160.1718,633.9638 -270.5373,557.7891 -782.3712,960.9652 -1398.6264,1101.7098 -188.5029,43.0514 -453.7665,55.0554 -633.2759,28.6582 z"
         style="fill:#086343;fill-opacity:1;stroke-width:13.76686096" />
    </g>
  </g>
</svg>
